<?xml version="1.0" encoding="utf-8"?>
<!-- Generator: Adobe Illustrator 19.1.0, SVG Export Plug-In . SVG Version: 6.00 Build 0)  -->
<svg version="1.1" id="Layer_1" xmlns="http://www.w3.org/2000/svg" xmlns:xlink="http://www.w3.org/1999/xlink" x="0px" y="0px"
	 viewBox="0 0 202 65" style="enable-background:new 0 0 202 65;" xml:space="preserve">
<metadata><?xpacket begin="﻿" id="W5M0MpCehiHzreSzNTczkc9d"?>
<x:xmpmeta xmlns:x="adobe:ns:meta/" x:xmptk="Adobe XMP Core 5.6-c067 79.157747, 2015/03/30-23:40:42        ">
   <rdf:RDF xmlns:rdf="http://www.w3.org/1999/02/22-rdf-syntax-ns#">
      <rdf:Description rdf:about=""/>
   </rdf:RDF>
</x:xmpmeta>
                                                                                                    
                                                                                                    
                                                                                                    
                                                                                                    
                                                                                                    
                                                                                                    
                                                                                                    
                                                                                                    
                                                                                                    
                                                                                                    
                                                                                                    
                                                                                                    
                                                                                                    
                                                                                                    
                                                                                                    
                                                                                                    
                                                                                                    
                                                                                                    
                                                                                                    
                                                                                                    
                           
<?xpacket end="w"?></metadata>
<style type="text/css">
	.st0{clip-path:url(#SVGID_5_);}
	.st1{clip-path:url(#SVGID_6_);}
	.st2{clip-path:url(#SVGID_7_);}
	.st3{clip-path:url(#SVGID_8_);fill:#2F3538;}
	.st4{clip-path:url(#SVGID_13_);}
	.st5{clip-path:url(#SVGID_14_);}
	.st6{clip-path:url(#SVGID_15_);}
	.st7{clip-path:url(#SVGID_16_);fill:#2F3538;}
	.st8{clip-path:url(#SVGID_21_);}
	.st9{clip-path:url(#SVGID_22_);}
	.st10{clip-path:url(#SVGID_23_);}
	.st11{clip-path:url(#SVGID_24_);fill:#2F3538;}
	.st12{clip-path:url(#SVGID_29_);}
	.st13{clip-path:url(#SVGID_30_);}
	.st14{clip-path:url(#SVGID_31_);}
	.st15{clip-path:url(#SVGID_32_);fill:#2F3538;}
	.st16{clip-path:url(#SVGID_37_);}
	.st17{clip-path:url(#SVGID_38_);}
	.st18{clip-path:url(#SVGID_39_);}
	.st19{clip-path:url(#SVGID_40_);fill:#2F3538;}
	.st20{clip-path:url(#SVGID_45_);}
	.st21{clip-path:url(#SVGID_46_);}
	.st22{clip-path:url(#SVGID_47_);}
	.st23{clip-path:url(#SVGID_48_);fill:#2F3538;}
	.st24{clip-path:url(#SVGID_53_);}
	.st25{clip-path:url(#SVGID_54_);}
	.st26{clip-path:url(#SVGID_55_);}
	.st27{clip-path:url(#SVGID_56_);fill:#2F3538;}
	.st28{clip-path:url(#SVGID_61_);}
	.st29{clip-path:url(#SVGID_62_);}
	.st30{clip-path:url(#SVGID_63_);}
	.st31{clip-path:url(#SVGID_64_);fill:#2F3538;}
	.st32{clip-path:url(#SVGID_69_);}
	.st33{clip-path:url(#SVGID_70_);}
	.st34{clip-path:url(#SVGID_71_);}
	.st35{clip-path:url(#SVGID_72_);fill:#2F3538;}
	.st36{clip-path:url(#SVGID_77_);}
	.st37{clip-path:url(#SVGID_78_);}
	.st38{clip-path:url(#SVGID_79_);}
	.st39{clip-path:url(#SVGID_80_);fill:#2F3538;}
	.st40{clip-path:url(#SVGID_85_);}
	.st41{clip-path:url(#SVGID_86_);}
	.st42{clip-path:url(#SVGID_87_);}
	.st43{clip-path:url(#SVGID_88_);fill:#2F3538;}
	.st44{clip-path:url(#SVGID_93_);}
	.st45{clip-path:url(#SVGID_94_);}
	.st46{clip-path:url(#SVGID_95_);}
	.st47{clip-path:url(#SVGID_96_);fill:#2F3538;}
	.st48{clip-path:url(#SVGID_100_);}
	.st49{clip-path:url(#SVGID_101_);}
	.st50{clip-path:url(#SVGID_102_);fill:#2F3538;}
	.st51{clip-path:url(#SVGID_106_);}
	.st52{clip-path:url(#SVGID_107_);}
	.st53{clip-path:url(#SVGID_108_);fill:#2F3538;}
	.st54{clip-path:url(#SVGID_112_);}
	.st55{clip-path:url(#SVGID_113_);}
	.st56{clip-path:url(#SVGID_114_);fill:#2F3538;}
	.st57{clip-path:url(#SVGID_118_);}
	.st58{clip-path:url(#SVGID_119_);}
	.st59{clip-path:url(#SVGID_120_);fill:#2F3538;}
	.st60{clip-path:url(#SVGID_124_);}
	.st61{clip-path:url(#SVGID_125_);}
	.st62{clip-path:url(#SVGID_126_);fill:#2F3538;}
	.st63{clip-path:url(#SVGID_130_);}
	.st64{clip-path:url(#SVGID_131_);}
	.st65{clip-path:url(#SVGID_132_);fill:#2F3538;}
	.st66{clip-path:url(#SVGID_136_);}
	.st67{clip-path:url(#SVGID_137_);}
	.st68{clip-path:url(#SVGID_138_);fill:#2F3538;}
	.st69{clip-path:url(#SVGID_142_);}
	.st70{clip-path:url(#SVGID_143_);}
	.st71{clip-path:url(#SVGID_144_);fill:#E48D35;}
</style>
<g>
	<defs>
		<rect id="SVGID_1_" x="1" y="1" width="201" height="64"/>
	</defs>
	<defs>
		<path id="SVGID_2_" d="M64.5,35.9c0,0,0.4,0.1,0.4,0.1l1.2-0.2v-0.5l-1.2-0.2c0,0-0.4,0.2-0.4,0.2H52.4c0-0.1,0,0,0-0.1
			c0-0.4-0.1-0.7-0.2-0.7l0,0h0c0,0-0.1,0-0.1,0.1c-0.1,0.1-0.3,0.2-0.6,0.2c-0.1-0.1-0.2-0.1-0.4-0.1c-1.6-0.1-4.9-0.3-6.6-0.4
			c-0.4-0.1-1.3,0.2-1.5,0.9c0,0.1,0,0.2,0,0.3c0,0.1,0,0.2,0,0.3c0.1,0.6,1,0.9,1.4,0.9c1.6-0.1,5-0.2,6.6-0.2c0.1,0,0.3,0,0.4-0.1
			c0.2,0,0.4,0.2,0.6,0.2c0,0.1,0.1,0.1,0.1,0.1h0l0,0c0.1,0,0.2-0.2,0.2-0.6c0-0.1,0-0.3,0-0.3H64.5L64.5,35.9L64.5,35.9z
			 M64.5,35.9"/>
	</defs>
	<defs>
		<path id="SVGID_3_" d="M-11-9h224v83H-11V-9z M-11-9"/>
	</defs>
	<defs>
		<rect id="SVGID_4_" x="1" y="-727" width="612" height="792"/>
	</defs>
	<clipPath id="SVGID_5_">
		<use xlink:href="#SVGID_1_"  style="overflow:visible;"/>
	</clipPath>
	<clipPath id="SVGID_6_" class="st0">
		<use xlink:href="#SVGID_2_"  style="overflow:visible;"/>
	</clipPath>
	<clipPath id="SVGID_7_" class="st1">
		<use xlink:href="#SVGID_3_"  style="overflow:visible;"/>
	</clipPath>
	<clipPath id="SVGID_8_" class="st2">
		<use xlink:href="#SVGID_4_"  style="overflow:visible;"/>
	</clipPath>
	<rect x="38.1" y="29.5" class="st3" width="33" height="12.3"/>
</g>
<g>
	<defs>
		<rect id="SVGID_9_" x="1" y="1" width="201" height="64"/>
	</defs>
	<defs>
		<path id="SVGID_10_" d="M37.2,28.3L37.1,28l0-0.2l0-0.2l0-0.1l0-0.1v-0.1l0-0.1l0.1-0.6v-0.2l0-0.5v-0.1l0-0.1l0-0.4l0-0.2l0-0.6
			v-0.1l0-0.6l0-0.2l0-0.4V23v-0.1l0-0.3l0-0.3v-0.1l0-0.1v-0.4l0-0.4l0-0.2l0-0.5l0-0.2l0-0.4V20l0-0.5v-0.2l0-0.3v-0.2l0-0.4
			l0-0.4l0-0.4v-0.4l-0.1-1.1v-0.4v-0.4l0-0.5l0-0.5v-0.5l0-0.5l0-0.5l0-0.5l0-0.5l0-0.5l0.2-3.5l0.1-0.5l0.1-0.5L38,6.3L38,5.7
			l0.1-0.5l0,0l0,0l0,0l0-0.1l0,0l0,0l0.1-0.1l0.1-0.1l0.1-0.1l0.1-0.1l0,0l0-0.1l0,0l0,0l0-0.1l0.1-0.1l0.1-0.1l0-0.1L38.8,4l0-0.1
			l0-0.1l0-0.1l0,0l0,0l0-0.1l0-0.1l0-0.1l0.1,0l0.1,0l0,0l0.1,0l0.1,0h0.1h0.1l0.1,0h0.1l0.1,0l0.1,0l0.1,0l0.1,0l0.1,0.1l0.2,0
			l0.1,0h0.1l0.2,0h0.2l0.2,0l0.2,0l0.2,0l0.1,0l0.1,0l0.2,0.1l0.2,0.1l0.2,0.1l0.1,0L42.6,4l0.2,0.1L43,4.2l0.2,0.1l0.2,0.1
			l0.1-0.1l0.1-0.1l0.1-0.1l0.1-0.1l0-0.1l0-0.1l0-0.1l0-0.1l-0.4-0.2l-0.3-0.2l-0.2-0.1l-0.2-0.1l-0.1-0.1l-0.2-0.1L42.5,3
			l-0.2-0.1l-0.2-0.1L42,2.7l-0.2-0.1l-0.2-0.1l-0.2-0.1l-0.2-0.1L41,2.2l-0.2-0.1l-0.2-0.1L40.3,2l-0.4-0.1l-0.4-0.1l-0.4-0.1
			L39,1.5l-0.2-0.1l-0.4-0.1L38,1.3l-0.2-0.1l-0.2,0l-0.2-0.1l-0.2,0l-0.2,0l-0.2,0l-0.2,0h-0.2h-0.2h-0.2l-0.2,0l-0.1,0l-0.1,0
			l-0.1,0l-0.1,0.1l-0.1,0.1l0,0l0,0l0,0.1l0,0l0,0.1l0,0l0,0l0,0l0,0l0,0l0,0l-0.1,0l0,0h0l0,0l-0.1,0h0l-0.1,0h-0.1h0h0h-0.1
			l-0.1,0h0h0l-0.1,0l-0.1,0l0,0h0h0l-0.1,0l-0.1,0l-0.1,0l-0.1,0l-0.1,0l0,0l0,0l-0.1-0.1l-0.1,0l-0.1-0.1l-0.1-0.1l-1.3,0
			l-0.1,0.1l-0.1,0.1l-0.1,0.1l-0.1,0.1l0,0.1l0,0.1l0,0.1l0,0.1l0,0.1l0,0.1l0,0.1l0,0.1v0.1v0.1v0.1v0.1l0,0.1l0,0.1l0,0.1l0,0.1
			l0,0.1L32,3L32.1,3l0.1,0.1l1.3,0.2l0.1-0.1l0.1-0.1l0.1-0.1l0.1,0l0.2-0.1L34.1,3l0.2,0l0.2,0h0.1h0.1l0.1,0l0.1,0l0.1,0l0.1,0
			l0.1,0l0.1,0l0.1,0l0.1,0l0.1,0.1l0.1,0.1l0.1,0.1l0.1,0.1l0.1,0.1l0.1,0.1l0.1,0.2l0.1,0.2l0,0.1l0,0.1l0,0.1v0.1v0.1v0.1l0,0.1
			v0.1l0,0.1l0,0.1l0,0.1l0,0.1l0,0l0,0.6v0.1v0.1v0.1V6v0.3v0.3l0,0.3v0.1v0.1v0.3l0,0.3l-0.2,3.5l0,0.5l0,0.2l0,0.3l0,0.2l0,0.3
			l0,0.5l-0.1,0.5l-0.1,0.5l0,0.2l0,0.2l0,0.2l0,0.2l0,0.2l0,0.1l0,0.1v0.1l-0.1,0.5L35,18.3l0,0.4l0,0.2l0,0.2l0,0.2l0,0.3l0,0.3
			l0,0.1v0.1l0,0.2l0,0.2l0,0.2v0.3l0,0.3v0.2l0,0.2v0.2l0,0.1v0.1l0,0.5v0.3l0,0.2v0.2v0.3l0,0.3v0.1v0.1v0.3V25v0.3v0.2v0v0l0,0.1
			v0v0v0.1v0.1V26l0,0.2l0,0.1v0.1v0v0v0l0,0.1v0v0v0l0,0.1v0v0v0l0,0v0.1l0,0.1l0,0v0.1l0,0.1l0,0v0l0,0.1l0,0.1l0,0.1l0,0.1l0,0
			l0,0L34,28.2l-0.1,0.1l0,0.1l0,0.1l0,0v0v0l0,0v0l0,0v0v0l0,0.1l0,0l0,0l0,0l0,0l0,0l0,0l0.1,0l0.1,0l0.1,0l0.1,0l0.1,0l0,0h0.3
			l0.3,0h0.3l0.3,0l0.4,0h0.2l0.2,0l0.3,0l0.4,0l0.2-0.3L37.2,28.3L37.2,28.3z M37.2,28.3"/>
	</defs>
	<defs>
		<path id="SVGID_11_" d="M-11-9h224v83H-11V-9z M-11-9"/>
	</defs>
	<defs>
		<rect id="SVGID_12_" x="1" y="-727" width="612" height="792"/>
	</defs>
	<clipPath id="SVGID_13_">
		<use xlink:href="#SVGID_9_"  style="overflow:visible;"/>
	</clipPath>
	<clipPath id="SVGID_14_" class="st4">
		<use xlink:href="#SVGID_10_"  style="overflow:visible;"/>
	</clipPath>
	<clipPath id="SVGID_15_" class="st5">
		<use xlink:href="#SVGID_11_"  style="overflow:visible;"/>
	</clipPath>
	<clipPath id="SVGID_16_" class="st6">
		<use xlink:href="#SVGID_12_"  style="overflow:visible;"/>
	</clipPath>
	<rect x="26.9" y="-4" class="st7" width="22.1" height="37.9"/>
</g>
<g>
	<defs>
		<rect id="SVGID_17_" x="1" y="1" width="201" height="64"/>
	</defs>
	<defs>
		<path id="SVGID_18_" d="M25.7,33c-1.2,0-1.7,0.6-2.2,1C22.4,34.4,5.8,34,5.5,33.8c-0.3-0.2-0.9-1-1.9-1c-0.9,0-1.4,0.3-1.7,0.5
			c-0.3,0.2-0.5,0.4-0.5,0.6c-0.1,0.1-0.1,0.2-0.2,0.3c0,0.1,0,0.1,0,0.1l1.7,0.1c0.3,0.2,0.4,0.4,0.5,0.6c0,0.1,0.1,0.3,0.1,0.4
			c0,0.1-0.1,0.2-0.1,0.3c0,0.1-0.1,0.2-0.1,0.3l-1.6,0l-0.4,0.4c0,0,0.5,1.1,2.1,1.1c1.1,0,1.7-1,1.9-1.2c0.2-0.1,18.1,0,18.3,0.1
			c0.2,0.1,1.1,1.1,2.1,1.2c1.1,0.1,1.5-0.4,1.7-0.7c0.3-0.3,0.4-0.6,0.4-0.6L26,36.1l0,0c-0.1-0.1-0.7-0.9-0.2-1.7l0,0l1.7,0
			l0.3-0.3C27.7,34.2,27.2,33,25.7,33L25.7,33L25.7,33z M25.7,33"/>
	</defs>
	<defs>
		<path id="SVGID_19_" d="M-11-9h224v83H-11V-9z M-11-9"/>
	</defs>
	<defs>
		<rect id="SVGID_20_" x="1" y="-727" width="612" height="792"/>
	</defs>
	<clipPath id="SVGID_21_">
		<use xlink:href="#SVGID_17_"  style="overflow:visible;"/>
	</clipPath>
	<clipPath id="SVGID_22_" class="st8">
		<use xlink:href="#SVGID_18_"  style="overflow:visible;"/>
	</clipPath>
	<clipPath id="SVGID_23_" class="st9">
		<use xlink:href="#SVGID_19_"  style="overflow:visible;"/>
	</clipPath>
	<clipPath id="SVGID_24_" class="st10">
		<use xlink:href="#SVGID_20_"  style="overflow:visible;"/>
	</clipPath>
	<rect x="-3.8" y="27.8" class="st11" width="36.6" height="14.8"/>
</g>
<g>
	<defs>
		<rect id="SVGID_25_" x="1" y="1" width="201" height="64"/>
	</defs>
	<defs>
		<path id="SVGID_26_" d="M83.2,38.3c-1.4,0-2.8-0.3-4.1-0.8c-0.3-0.1-0.6-0.3-0.8-0.4l-0.8-0.5l1.5-4l1.5,0.7
			c0.9,0.4,1.8,0.6,2.8,0.6c0.9,0,1.1-0.3,1.1-0.4c0.1-0.2,0.4-0.8,0.4-2.4v-17h4.7v15.4c0,1.8-0.1,3.1-0.2,3.9
			c-0.2,0.8-0.4,1.5-0.7,2c-0.3,0.6-0.7,1.1-1.2,1.5C86.4,37.9,84.9,38.3,83.2,38.3L83.2,38.3L83.2,38.3z M83.2,38.3"/>
	</defs>
	<defs>
		<path id="SVGID_27_" d="M-11-9h224v83H-11V-9z M-11-9"/>
	</defs>
	<defs>
		<rect id="SVGID_28_" x="1" y="-727" width="612" height="792"/>
	</defs>
	<clipPath id="SVGID_29_">
		<use xlink:href="#SVGID_25_"  style="overflow:visible;"/>
	</clipPath>
	<clipPath id="SVGID_30_" class="st12">
		<use xlink:href="#SVGID_26_"  style="overflow:visible;"/>
	</clipPath>
	<clipPath id="SVGID_31_" class="st13">
		<use xlink:href="#SVGID_27_"  style="overflow:visible;"/>
	</clipPath>
	<clipPath id="SVGID_32_" class="st14">
		<use xlink:href="#SVGID_28_"  style="overflow:visible;"/>
	</clipPath>
	<rect x="72.4" y="9.2" class="st15" width="22" height="34.1"/>
</g>
<g>
	<defs>
		<rect id="SVGID_33_" x="1" y="1" width="201" height="64"/>
	</defs>
	<defs>
		<path id="SVGID_34_" d="M102.4,38.3c-4,0-6.7-1.2-7.9-3.7c-0.7-1.3-1-3-1.1-5c0-0.9,0-1.8,0-2.7V14.2h4.7v12.7
			c0,2.7,0.1,3.9,0.3,4.4c0.2,0.9,0.4,1.3,0.5,1.5c0.2,0.3,0.4,0.5,0.6,0.6c0.6,0.4,1.5,0.5,2.6,0.5c1.5,0,2.3-0.2,2.7-0.3
			c0.4-0.1,0.7-0.4,1-0.8c0.3-0.5,0.5-1.2,0.6-2c0.1-1,0.2-2.3,0.2-4V14.2h4.7v12.6c0,2.5-0.1,4.2-0.3,5.2c-0.2,1-0.5,1.9-0.8,2.6
			c-0.4,0.8-0.9,1.5-1.7,2C107.1,37.7,105,38.3,102.4,38.3L102.4,38.3L102.4,38.3z M102.4,38.3"/>
	</defs>
	<defs>
		<path id="SVGID_35_" d="M-11-9h224v83H-11V-9z M-11-9"/>
	</defs>
	<defs>
		<rect id="SVGID_36_" x="1" y="-727" width="612" height="792"/>
	</defs>
	<clipPath id="SVGID_37_">
		<use xlink:href="#SVGID_33_"  style="overflow:visible;"/>
	</clipPath>
	<clipPath id="SVGID_38_" class="st16">
		<use xlink:href="#SVGID_34_"  style="overflow:visible;"/>
	</clipPath>
	<clipPath id="SVGID_39_" class="st17">
		<use xlink:href="#SVGID_35_"  style="overflow:visible;"/>
	</clipPath>
	<clipPath id="SVGID_40_" class="st18">
		<use xlink:href="#SVGID_36_"  style="overflow:visible;"/>
	</clipPath>
	<rect x="88.3" y="9.2" class="st19" width="28" height="34.1"/>
</g>
<g>
	<defs>
		<rect id="SVGID_41_" x="1" y="1" width="201" height="64"/>
	</defs>
	<defs>
		<path id="SVGID_42_" d="M123.3,38.3c-1.1,0-2.1-0.1-3-0.3c-1-0.2-1.8-0.6-2.5-1c-0.7-0.5-1.3-1.1-1.7-1.8c-0.4-0.7-0.7-1.5-1-2.3
			c-0.3-1.4-0.5-3-0.5-5c0-1.9,0-3.4,0.1-4.5c0.1-1.1,0.2-2.2,0.4-3.1c0.2-1,0.5-1.8,0.9-2.6c0.4-0.8,1-1.5,1.7-2
			c1.4-1.1,3.3-1.6,5.6-1.6c2.5,0,4.8,0.3,6.6,0.9l1.8,0.6l-1.2,4.5l-1.2-0.4c-2.1-0.7-4.2-1.1-6.2-1.1c-2.1,0-2.8,1-3.1,1.9
			c-0.3,0.9-0.5,2-0.6,3.2c0,1.3-0.1,2.4-0.1,3.4v1.4c0,3.5,0.7,4.7,1.2,5.1c0.4,0.4,1,0.6,1.7,0.7c0.9,0.1,1.8,0.1,2.7,0
			c0.4-0.1,0.8-0.1,1.2-0.2c0.4-0.1,0.7-0.2,1-0.2v-4.7h-4.4v-4.3h9.1v11.4l-0.5,0.4c-1.1,0.8-2.8,1.4-5.2,1.8
			C125.3,38.2,124.4,38.3,123.3,38.3L123.3,38.3L123.3,38.3z M123.3,38.3"/>
	</defs>
	<defs>
		<path id="SVGID_43_" d="M-11-9h224v83H-11V-9z M-11-9"/>
	</defs>
	<defs>
		<rect id="SVGID_44_" x="1" y="-727" width="612" height="792"/>
	</defs>
	<clipPath id="SVGID_45_">
		<use xlink:href="#SVGID_41_"  style="overflow:visible;"/>
	</clipPath>
	<clipPath id="SVGID_46_" class="st20">
		<use xlink:href="#SVGID_42_"  style="overflow:visible;"/>
	</clipPath>
	<clipPath id="SVGID_47_" class="st21">
		<use xlink:href="#SVGID_43_"  style="overflow:visible;"/>
	</clipPath>
	<clipPath id="SVGID_48_" class="st22">
		<use xlink:href="#SVGID_44_"  style="overflow:visible;"/>
	</clipPath>
	<rect x="109.6" y="8.9" class="st23" width="27.3" height="34.4"/>
</g>
<g>
	<defs>
		<rect id="SVGID_49_" x="1" y="1" width="201" height="64"/>
	</defs>
	<defs>
		<path id="SVGID_50_" d="M147.7,14.2h-5l-7.9,23.9h5l2-6.4h7l2.2,6.4h5.1L147.7,14.2L147.7,14.2L147.7,14.2z M143.3,27.3l2-6.3
			l2.1,6.3H143.3L143.3,27.3L143.3,27.3z M143.3,27.3"/>
	</defs>
	<defs>
		<path id="SVGID_51_" d="M-11-9h224v83H-11V-9z M-11-9"/>
	</defs>
	<defs>
		<rect id="SVGID_52_" x="1" y="-727" width="612" height="792"/>
	</defs>
	<clipPath id="SVGID_53_">
		<use xlink:href="#SVGID_49_"  style="overflow:visible;"/>
	</clipPath>
	<clipPath id="SVGID_54_" class="st24">
		<use xlink:href="#SVGID_50_"  style="overflow:visible;"/>
	</clipPath>
	<clipPath id="SVGID_55_" class="st25">
		<use xlink:href="#SVGID_51_"  style="overflow:visible;"/>
	</clipPath>
	<clipPath id="SVGID_56_" class="st26">
		<use xlink:href="#SVGID_52_"  style="overflow:visible;"/>
	</clipPath>
	<rect x="129.9" y="9.2" class="st27" width="31.2" height="33.9"/>
</g>
<g>
	<defs>
		<rect id="SVGID_57_" x="1" y="1" width="201" height="64"/>
	</defs>
	<defs>
		<path id="SVGID_58_" d="M172,14.2h-5l-7.9,23.9h5l2-6.4h7l2.2,6.4h5.1L172,14.2L172,14.2L172,14.2z M167.6,27.3l2-6.3l2.1,6.3
			H167.6L167.6,27.3L167.6,27.3z M167.6,27.3"/>
	</defs>
	<defs>
		<path id="SVGID_59_" d="M-11-9h224v83H-11V-9z M-11-9"/>
	</defs>
	<defs>
		<rect id="SVGID_60_" x="1" y="-727" width="612" height="792"/>
	</defs>
	<clipPath id="SVGID_61_">
		<use xlink:href="#SVGID_57_"  style="overflow:visible;"/>
	</clipPath>
	<clipPath id="SVGID_62_" class="st28">
		<use xlink:href="#SVGID_58_"  style="overflow:visible;"/>
	</clipPath>
	<clipPath id="SVGID_63_" class="st29">
		<use xlink:href="#SVGID_59_"  style="overflow:visible;"/>
	</clipPath>
	<clipPath id="SVGID_64_" class="st30">
		<use xlink:href="#SVGID_60_"  style="overflow:visible;"/>
	</clipPath>
	<rect x="154.1" y="9.2" class="st31" width="31.2" height="33.9"/>
</g>
<g>
	<defs>
		<rect id="SVGID_65_" x="1" y="1" width="201" height="64"/>
	</defs>
	<defs>
		<path id="SVGID_66_" d="M200.4,17.8c-0.3-0.8-0.8-1.4-1.3-1.9c-0.5-0.5-1.2-0.9-1.9-1.2c-0.7-0.3-1.4-0.5-2.3-0.6
			c-0.8-0.1-1.9-0.2-3.2-0.2c-1.3,0-3.1,0.1-5.2,0.2l-3.2,0.2v23.7h7.8c2.7,0,4.8-0.5,6.2-1.4c1.5-0.9,2.7-2.3,3.2-4.3
			c0.4-1.6,0.8-3.8,0.8-6.7v-2.2C201.3,21,201,19.2,200.4,17.8L200.4,17.8L200.4,17.8z M196.3,25.7c0,2.4-0.2,4.1-0.4,5.1
			c-0.2,1-0.6,1.8-1.2,2.1c-0.4,0.3-1.4,0.7-3.3,0.7h-3.2V18.5c1.6-0.1,2.8-0.2,3.9-0.2c1.4,0,2.1,0.2,2.5,0.3
			c0.4,0.2,0.7,0.4,1,0.8c0.2,0.4,0.7,1.4,0.7,4.2V25.7L196.3,25.7L196.3,25.7z M196.3,25.7"/>
	</defs>
	<defs>
		<path id="SVGID_67_" d="M-11-9h224v83H-11V-9z M-11-9"/>
	</defs>
	<defs>
		<rect id="SVGID_68_" x="1" y="-727" width="612" height="792"/>
	</defs>
	<clipPath id="SVGID_69_">
		<use xlink:href="#SVGID_65_"  style="overflow:visible;"/>
	</clipPath>
	<clipPath id="SVGID_70_" class="st32">
		<use xlink:href="#SVGID_66_"  style="overflow:visible;"/>
	</clipPath>
	<clipPath id="SVGID_71_" class="st33">
		<use xlink:href="#SVGID_67_"  style="overflow:visible;"/>
	</clipPath>
	<clipPath id="SVGID_72_" class="st34">
		<use xlink:href="#SVGID_68_"  style="overflow:visible;"/>
	</clipPath>
	<rect x="178.3" y="8.9" class="st35" width="28" height="34.2"/>
</g>
<g>
	<defs>
		<rect id="SVGID_73_" x="1" y="1" width="201" height="64"/>
	</defs>
	<defs>
		<path id="SVGID_74_" d="M78.7,46.7v4.6h-1.3v-7.8l3.9,3.9l3.9-3.9v7.8h-1.3v-4.6l-2.6,2.6L78.7,46.7L78.7,46.7L78.7,46.7z
			 M78.7,46.7"/>
	</defs>
	<defs>
		<path id="SVGID_75_" d="M-11-9h224v83H-11V-9z M-11-9"/>
	</defs>
	<defs>
		<rect id="SVGID_76_" x="1" y="-727" width="612" height="792"/>
	</defs>
	<clipPath id="SVGID_77_">
		<use xlink:href="#SVGID_73_"  style="overflow:visible;"/>
	</clipPath>
	<clipPath id="SVGID_78_" class="st36">
		<use xlink:href="#SVGID_74_"  style="overflow:visible;"/>
	</clipPath>
	<clipPath id="SVGID_79_" class="st37">
		<use xlink:href="#SVGID_75_"  style="overflow:visible;"/>
	</clipPath>
	<clipPath id="SVGID_80_" class="st38">
		<use xlink:href="#SVGID_76_"  style="overflow:visible;"/>
	</clipPath>
	<rect x="72.4" y="38.6" class="st39" width="17.8" height="17.8"/>
</g>
<g>
	<defs>
		<rect id="SVGID_81_" x="1" y="1" width="201" height="64"/>
	</defs>
	<defs>
		<path id="SVGID_82_" d="M101.3,50h-3.6l-0.7,1.3h-1.4l3.9-7.8l3.9,7.8H102L101.3,50L101.3,50L101.3,50z M98.4,48.8h2.3l-1.1-2.3
			L98.4,48.8L98.4,48.8L98.4,48.8z M98.4,48.8"/>
	</defs>
	<defs>
		<path id="SVGID_83_" d="M-11-9h224v83H-11V-9z M-11-9"/>
	</defs>
	<defs>
		<rect id="SVGID_84_" x="1" y="-727" width="612" height="792"/>
	</defs>
	<clipPath id="SVGID_85_">
		<use xlink:href="#SVGID_81_"  style="overflow:visible;"/>
	</clipPath>
	<clipPath id="SVGID_86_" class="st40">
		<use xlink:href="#SVGID_82_"  style="overflow:visible;"/>
	</clipPath>
	<clipPath id="SVGID_87_" class="st41">
		<use xlink:href="#SVGID_83_"  style="overflow:visible;"/>
	</clipPath>
	<clipPath id="SVGID_88_" class="st42">
		<use xlink:href="#SVGID_84_"  style="overflow:visible;"/>
	</clipPath>
	<rect x="90.6" y="38.6" class="st43" width="17.8" height="17.8"/>
</g>
<g>
	<defs>
		<rect id="SVGID_89_" x="1" y="1" width="201" height="64"/>
	</defs>
	<defs>
		<path id="SVGID_90_" d="M117.7,43.6c0.5,0,1.1,0.1,1.5,0.3c0.5,0.2,0.9,0.5,1.2,0.8l-0.9,0.9c-0.5-0.5-1.1-0.8-1.8-0.8
			c-0.7,0-1.3,0.2-1.9,0.8c-0.5,0.5-0.7,1.1-0.7,1.8s0.2,1.3,0.7,1.8c0.5,0.5,1.1,0.7,1.9,0.7c0.4,0,0.7-0.1,1.1-0.2
			c0.3-0.2,0.6-0.4,0.9-0.6v-1.1h-2v-1.3h3.3v2.8c-0.2,0.3-0.4,0.5-0.6,0.7c-0.2,0.2-0.5,0.4-0.8,0.5c-0.3,0.2-0.6,0.3-0.9,0.4
			c-0.3,0.1-0.6,0.1-1,0.1c-1.1,0-2-0.4-2.8-1.1c-0.8-0.7-1.1-1.7-1.1-2.7c0-1.1,0.4-2,1.1-2.7C115.7,44,116.6,43.6,117.7,43.6
			L117.7,43.6L117.7,43.6z M117.7,43.6"/>
	</defs>
	<defs>
		<path id="SVGID_91_" d="M-11-9h224v83H-11V-9z M-11-9"/>
	</defs>
	<defs>
		<rect id="SVGID_92_" x="1" y="-727" width="612" height="792"/>
	</defs>
	<clipPath id="SVGID_93_">
		<use xlink:href="#SVGID_89_"  style="overflow:visible;"/>
	</clipPath>
	<clipPath id="SVGID_94_" class="st44">
		<use xlink:href="#SVGID_90_"  style="overflow:visible;"/>
	</clipPath>
	<clipPath id="SVGID_95_" class="st45">
		<use xlink:href="#SVGID_91_"  style="overflow:visible;"/>
	</clipPath>
	<clipPath id="SVGID_96_" class="st46">
		<use xlink:href="#SVGID_92_"  style="overflow:visible;"/>
	</clipPath>
	<rect x="108.8" y="38.6" class="st47" width="17.2" height="17.8"/>
</g>
<g>
	<defs>
		<rect id="SVGID_97_" x="1" y="1" width="201" height="64"/>
	</defs>
	<defs>
		<path id="SVGID_98_" d="M137,50h-3.6l-0.7,1.3h-1.4l3.9-7.8l3.9,7.8h-1.4L137,50L137,50L137,50z M134,48.8h2.3l-1.1-2.3L134,48.8
			L134,48.8L134,48.8z M134,48.8"/>
	</defs>
	<defs>
		<path id="SVGID_99_" d="M-11-9h224v83H-11V-9z M-11-9"/>
	</defs>
	<clipPath id="SVGID_100_">
		<use xlink:href="#SVGID_97_"  style="overflow:visible;"/>
	</clipPath>
	<clipPath id="SVGID_101_" class="st48">
		<use xlink:href="#SVGID_98_"  style="overflow:visible;"/>
	</clipPath>
	<clipPath id="SVGID_102_" class="st49">
		<use xlink:href="#SVGID_99_"  style="overflow:visible;"/>
	</clipPath>
	<rect x="126.3" y="38.6" class="st50" width="17.8" height="17.8"/>
</g>
<g>
	<defs>
		<rect id="SVGID_103_" x="1" y="1" width="201" height="64"/>
	</defs>
	<defs>
		<path id="SVGID_104_" d="M154.5,44.9h-5.1v-1.3h7.8l-5.1,6.5h5.1v1.3h-7.8L154.5,44.9L154.5,44.9L154.5,44.9z M154.5,44.9"/>
	</defs>
	<defs>
		<path id="SVGID_105_" d="M-11-9h224v83H-11V-9z M-11-9"/>
	</defs>
	<clipPath id="SVGID_106_">
		<use xlink:href="#SVGID_103_"  style="overflow:visible;"/>
	</clipPath>
	<clipPath id="SVGID_107_" class="st51">
		<use xlink:href="#SVGID_104_"  style="overflow:visible;"/>
	</clipPath>
	<clipPath id="SVGID_108_" class="st52">
		<use xlink:href="#SVGID_105_"  style="overflow:visible;"/>
	</clipPath>
	<rect x="144.4" y="38.6" class="st53" width="17.8" height="17.8"/>
</g>
<g>
	<defs>
		<rect id="SVGID_109_" x="1" y="1" width="201" height="64"/>
	</defs>
	<defs>
		<path id="SVGID_110_" d="M167.6,43.6h1.3v7.8h-1.3V43.6L167.6,43.6L167.6,43.6z M167.6,43.6"/>
	</defs>
	<defs>
		<path id="SVGID_111_" d="M-11-9h224v83H-11V-9z M-11-9"/>
	</defs>
	<clipPath id="SVGID_112_">
		<use xlink:href="#SVGID_109_"  style="overflow:visible;"/>
	</clipPath>
	<clipPath id="SVGID_113_" class="st54">
		<use xlink:href="#SVGID_110_"  style="overflow:visible;"/>
	</clipPath>
	<clipPath id="SVGID_114_" class="st55">
		<use xlink:href="#SVGID_111_"  style="overflow:visible;"/>
	</clipPath>
	<rect x="162.6" y="38.6" class="st56" width="11.3" height="17.8"/>
</g>
<g>
	<defs>
		<rect id="SVGID_115_" x="1" y="1" width="201" height="64"/>
	</defs>
	<defs>
		<path id="SVGID_116_" d="M179.3,43.6l5.2,4.7v-4.7h1.3v7.8v0v0l-5.2-4.7v4.6h-1.3V43.6L179.3,43.6L179.3,43.6z M179.3,43.6"/>
	</defs>
	<defs>
		<path id="SVGID_117_" d="M-11-9h224v83H-11V-9z M-11-9"/>
	</defs>
	<clipPath id="SVGID_118_">
		<use xlink:href="#SVGID_115_"  style="overflow:visible;"/>
	</clipPath>
	<clipPath id="SVGID_119_" class="st57">
		<use xlink:href="#SVGID_116_"  style="overflow:visible;"/>
	</clipPath>
	<clipPath id="SVGID_120_" class="st58">
		<use xlink:href="#SVGID_117_"  style="overflow:visible;"/>
	</clipPath>
	<rect x="174.3" y="38.6" class="st59" width="16.5" height="17.8"/>
</g>
<g>
	<defs>
		<rect id="SVGID_121_" x="1" y="1" width="201" height="64"/>
	</defs>
	<defs>
		<path id="SVGID_122_" d="M201.3,43.6v1.3h-3.9v1.9h3.9v1.3h-3.9V50h3.9v1.3h-5.2v-7.8H201.3L201.3,43.6L201.3,43.6z M201.3,43.6"
			/>
	</defs>
	<defs>
		<path id="SVGID_123_" d="M-11-9h224v83H-11V-9z M-11-9"/>
	</defs>
	<clipPath id="SVGID_124_">
		<use xlink:href="#SVGID_121_"  style="overflow:visible;"/>
	</clipPath>
	<clipPath id="SVGID_125_" class="st60">
		<use xlink:href="#SVGID_122_"  style="overflow:visible;"/>
	</clipPath>
	<clipPath id="SVGID_126_" class="st61">
		<use xlink:href="#SVGID_123_"  style="overflow:visible;"/>
	</clipPath>
	<rect x="191.1" y="38.6" class="st62" width="15.2" height="17.8"/>
</g>
<g>
	<defs>
		<rect id="SVGID_127_" x="1" y="1" width="201" height="64"/>
	</defs>
	<defs>
		<path id="SVGID_128_" d="M43.2,58.5c0.2-0.3,0.3-0.6,0.4-1l0.4,0.1l1.1-1.8l-1.1,0h0c0-0.3,0-0.5,0-0.8v-0.2l0.4-0.1l0.4-2
			l-1.1,0.4c-0.1-0.4-0.2-0.7-0.3-1l0.4-0.2l-0.3-2.1l-0.9,0.7c-0.2-0.3-0.4-0.6-0.6-0.8l0.3-0.3l-1-1.8l-0.6,1
			c-0.3-0.2-0.6-0.4-0.9-0.6l0.1-0.4l-1.5-1.4l-0.2,1.1c-0.3-0.1-0.7-0.2-1-0.2l0-0.4L35.2,46v0l0.1,0.9l0,0.2
			c-0.4,0-0.7,0.1-1.1,0.1l-0.1-0.4l-2.1-0.1l0.4,0.8l0.1,0.2c-0.3,0.1-0.6,0.3-0.9,0.5l-0.2-0.3l-2,0.6l0,0l0.7,0.6l0.2,0.1
			c-0.2,0.2-0.5,0.5-0.7,0.8l-0.4-0.2l-1.6,1.3h0l0.8,0.3l0.2,0.1h0c-0.2,0.3-0.3,0.6-0.4,1L28,52.4l-1.1,1.8h0l0.9,0H28h0
			c0,0.2,0,0.5,0,0.8v0.3l-0.4,0.1l-0.4,2h0l0.8-0.3l0.2-0.1h0c0.1,0.3,0.2,0.7,0.3,1l-0.4,0.2l0.3,2.1l0,0l0.7-0.5l0.2-0.1l0,0
			c0.2,0.3,0.4,0.5,0.6,0.8l-0.3,0.3l1,1.8v0l0.5-0.8l0.1-0.2l0,0c0.3,0.2,0.6,0.4,0.9,0.5l-0.2,0.4l1.5,1.4v0l0.2-0.9l0.1-0.2
			l0-0.1c0.3,0.1,0.7,0.2,1,0.2l0,0.4l1.9,0.8L36.6,63v0c0.4,0,0.7-0.1,1-0.1l0.1,0.4l2.1,0.1l-0.5-1l0,0c0.3-0.1,0.6-0.3,0.9-0.5
			l0.3,0.4l2-0.6l-0.9-0.7l0,0c0.2-0.2,0.5-0.5,0.7-0.8l0.4,0.2l1.6-1.3L43.2,58.5L43.2,58.5L43.2,58.5L43.2,58.5z M36,60.2
			c-2.9,0-5.2-2.3-5.2-5.2c0-2.9,2.3-5.2,5.2-5.2s5.2,2.3,5.2,5.2C41.2,57.9,38.9,60.2,36,60.2L36,60.2L36,60.2z M36,60.2"/>
	</defs>
	<defs>
		<path id="SVGID_129_" d="M-11-9h224v83H-11V-9z M-11-9"/>
	</defs>
	<clipPath id="SVGID_130_">
		<use xlink:href="#SVGID_127_"  style="overflow:visible;"/>
	</clipPath>
	<clipPath id="SVGID_131_" class="st63">
		<use xlink:href="#SVGID_128_"  style="overflow:visible;"/>
	</clipPath>
	<clipPath id="SVGID_132_" class="st64">
		<use xlink:href="#SVGID_129_"  style="overflow:visible;"/>
	</clipPath>
	<rect x="21.9" y="41" class="st65" width="28.2" height="28.2"/>
</g>
<g>
	<defs>
		<rect id="SVGID_133_" x="1" y="1" width="201" height="64"/>
	</defs>
	<defs>
		<path id="SVGID_134_" d="M36,56.8c0.9,0,1.7-0.8,1.7-1.7c0-0.9-0.8-1.7-1.7-1.7s-1.7,0.8-1.7,1.7C34.3,56,35.1,56.8,36,56.8
			L36,56.8z M36,56.8"/>
	</defs>
	<defs>
		<path id="SVGID_135_" d="M-11-9h224v83H-11V-9z M-11-9"/>
	</defs>
	<clipPath id="SVGID_136_">
		<use xlink:href="#SVGID_133_"  style="overflow:visible;"/>
	</clipPath>
	<clipPath id="SVGID_137_" class="st66">
		<use xlink:href="#SVGID_134_"  style="overflow:visible;"/>
	</clipPath>
	<clipPath id="SVGID_138_" class="st67">
		<use xlink:href="#SVGID_135_"  style="overflow:visible;"/>
	</clipPath>
	<rect x="29.3" y="48.4" class="st68" width="13.4" height="13.4"/>
</g>
<g>
	<defs>
		<rect id="SVGID_139_" x="1" y="1" width="201" height="64"/>
	</defs>
	<defs>
		<path id="SVGID_140_" d="M36.6,35.6l18-17.9c0.3-0.3,0.3-0.7,0-1c-0.3-0.3-0.7-0.3-1,0l-18,17.9l-18-17.9c-0.3-0.3-0.7-0.3-1,0
			c-0.3,0.3-0.3,0.7,0,1l18,17.9l-18,17.9c-0.3,0.3-0.3,0.7,0,1c0.1,0.1,0.3,0.2,0.5,0.2s0.4-0.1,0.5-0.2l18-17.9l18,17.9
			c0.1,0.1,0.3,0.2,0.5,0.2c0.2,0,0.4-0.1,0.5-0.2c0.3-0.3,0.3-0.7,0-1L36.6,35.6L36.6,35.6L36.6,35.6z M36.6,35.6"/>
	</defs>
	<defs>
		<path id="SVGID_141_" d="M-11-9h224v83H-11V-9z M-11-9"/>
	</defs>
	<clipPath id="SVGID_142_">
		<use xlink:href="#SVGID_139_"  style="overflow:visible;"/>
	</clipPath>
	<clipPath id="SVGID_143_" class="st69">
		<use xlink:href="#SVGID_140_"  style="overflow:visible;"/>
	</clipPath>
	<clipPath id="SVGID_144_" class="st70">
		<use xlink:href="#SVGID_141_"  style="overflow:visible;"/>
	</clipPath>
	<rect x="11.5" y="11.5" class="st71" width="48.3" height="48.1"/>
</g>
</svg>
